# xmcd CD database file
#
# Track frame offsets:
#	150
#	16487
#	35632
#	53915
#	67497
#	87032
#	104110
#	120895
#	139322
#	156802
#	176695
#	193710
#
# Disc length: 2840 seconds
#
# Revision: 0
# Processed by: cddbd v1.5.1PL0 Copyright (c) Steve Scherf et al.
# Submitted via: CDex 1.51
#
DISCID=ad0b160c
DTITLE=Andreas Vollenweider - VOX
DYEAR=2005
DGENRE=New Age
TTITLE0=Hey You, Yes... You! (at the gate of sound)
TTITLE1=Wake Up and Dance! (all the good reasons...)
TTITLE2=These Hearts of Gold
TTITLE3=Seven Doors
TTITLE4=Home of Love
TTITLE5=Enchanted Rocks
TTITLE6=Pilgrim (...and I shall not be sad)
TTITLE7=The Sons of Sysiphos
TTITLE8=Paper Walls
TTITLE9=Ripples in the Lake of Time
TTITLE10=Kira's Waltz
TTITLE11=What if it wasn't a Dream?
EXTD=YEAR: 2005
EXTT0=
EXTT1=
EXTT2=
EXTT3=
EXTT4=
EXTT5=
EXTT6=
EXTT7=
EXTT8=
EXTT9=
EXTT10=
EXTT11=
PLAYORDER=
